<?xml version="1.0" encoding="utf-8"?>
<!-- Generator: Adobe Illustrator 25.2.3, SVG Export Plug-In . SVG Version: 6.00 Build 0)  -->
<svg version="1.1" id="Слой_1" xmlns="http://www.w3.org/2000/svg" xmlns:xlink="http://www.w3.org/1999/xlink" x="0px" y="0px"
	 viewBox="0 0 836 836" style="enable-background:new 0 0 836 836;" xml:space="preserve">
<style type="text/css">
	.st0{fill:#FFFFFF;}
	.st1{fill:#FFFFFF;stroke:#FFFFFF;stroke-width:5.6693;stroke-miterlimit:10;}
	.st2{fill:none;stroke:#FFFFFF;stroke-width:25.0054;stroke-miterlimit:10;}
	.st3{fill:none;stroke:#FFFFFF;stroke-width:19.8425;stroke-linejoin:round;stroke-miterlimit:10;}
</style>
<g>
	<path class="st0" d="M608.75,279.49c-22.37-0.04-44.6-0.04-66.05,0c-6.37,0.01-10.39,4.04-10.5,10.51
		c-0.04,2.64-0.03,5.34-0.02,7.95l0.01,1.25c0.04,7.31,3.93,11.19,11.26,11.2c7.57,0.01,15.13,0.01,22.7,0.01l9.35,0l9.87,0
		c7.72,0.01,15.43,0.01,23.15-0.01c6.75-0.02,10.66-3.94,10.73-10.74c0.03-2.65,0.05-6.14,0-9.68
		C619.15,283.52,615.12,279.5,608.75,279.49z"/>
	<path class="st0" d="M574.45,317.42c4.13,0,8.25,0.08,12.38-0.03c2.16-0.06,3.05,0.61,3.01,2.91c-0.12,6.15-0.02,12.31-0.05,18.46
		c-0.03,6.4-3.07,10.44-9.32,11.81c-4.78,1.05-9.66,1.14-14.35-0.63c-4.64-1.76-7.14-5.21-7.21-10.2c-0.09-6.64,0-13.28-0.05-19.92
		c-0.01-1.8,0.76-2.43,2.49-2.41C565.71,317.46,570.08,317.42,574.45,317.42z"/>
	<path class="st1" d="M571.52,410.32c2.99,0,5.56,0,8.47,0c0,1.13,0,2.15,0,3.18c0,33.71,0.02,67.42-0.05,101.13
		c0,2.12,0.57,2.99,2.63,3.71c8.97,3.15,14.21,12.55,12.51,21.94c-1.69,9.31-10.03,16.19-19.51,16.08
		c-9.46-0.11-17.59-6.97-19.17-16.19c-1.64-9.58,3.69-18.89,12.84-21.94c1.99-0.67,2.31-1.63,2.31-3.45
		c-0.04-33.71-0.03-67.42-0.03-101.13C571.52,412.61,571.52,411.58,571.52,410.32z"/>
	<path class="st0" d="M605.57,519.81c-2.49-6.06-6.37-11.04-12.82-12.89c11.13-11.15,22.22-22.27,33.15-33.23
		c4.09,4.1,8.6,8.6,12.87,12.88C627.89,497.46,616.78,508.57,605.57,519.81z"/>
	<g>
		<path class="st0" d="M766.48,509.07c-7-54.1-32.99-97.67-76.38-130.62c-26.77-20.33-57.07-32.3-90.41-36.82
			c-1.27,7.82-5.75,12.71-12.44,15.44c-3.24,1.32-6.84,2.1-10.34,2.39c-13.78,1.14-25.48-5.68-28.01-17.66
			c-93.76,11.15-175.46,96.45-167.86,205.95c7.43,107.01,101.21,189.36,210.81,179.22C701.94,716.8,780.63,618.43,766.48,509.07z
			 M685.54,645.25c-29.72,29.71-69.24,46.07-111.28,46.07c-0.03,0-0.04,0-0.07,0C487.51,691.28,417,620.65,417,533.87
			c0-42.07,16.39-81.62,46.14-111.36c29.72-29.71,69.2-46.06,111.19-46.06c0.05,0,0.1,0,0.15,0c42.01,0.04,81.48,16.43,111.15,46.16
			c29.67,29.73,46.01,69.25,46.02,111.3C731.65,575.98,715.27,615.52,685.54,645.25z"/>
		<path class="st0" d="M281.81,513.78c19.83,0,39.66-0.02,59.5,0.02c7.48,0.01,13.41,5,14.36,11.9c1.18,8.55-5.09,15.96-13.73,16.2
			c-0.32,0.01-0.65,0-0.97,0c-39.5,0-79.01,0-118.51,0c-7.11,0-12.71-4.07-14.41-10.39c-2.35-8.71,4.01-17.35,13.06-17.68
			c2.34-0.09,4.69-0.04,7.04-0.04C246.03,513.78,263.92,513.78,281.81,513.78z"/>
		<path class="st0" d="M303.69,613.44c-17.08,0-34.16,0.03-51.24-0.02c-5.96-0.02-11.04-3.67-13.1-9.15
			c-2.02-5.37-0.54-11.43,3.77-15.32c2.99-2.7,6.56-3.66,10.51-3.66c21.69,0.02,43.39,0.01,65.08,0.01c11.9,0,23.8-0.06,35.7,0.03
			c7.97,0.06,14.1,5.95,14.34,13.55c0.25,8.05-6.04,14.52-14.31,14.54C337.52,613.48,320.6,613.44,303.69,613.44z"/>
		<path class="st0" d="M303.67,470.62c-17.08,0-34.16,0.03-51.24-0.02c-6.15-0.02-11.36-3.89-13.26-9.59
			c-1.87-5.61,0-11.79,4.7-15.49c3.02-2.38,6.52-3.03,10.26-3.03c27.6,0.02,55.2,0.01,82.8,0.01c5.83,0,11.66-0.12,17.48,0.04
			c9.81,0.26,16.38,8.86,13.81,17.88c-1.74,6.1-7.16,10.17-13.8,10.18C337.51,470.64,320.59,470.62,303.67,470.62z"/>
		<path class="st0" d="M292.63,654.25c14.41,0,85.52-0.07,99.93,0.03c8.29,0.05,14.35,6.32,14.18,14.38
			c-0.14,6.78-5.32,12.6-12.04,13.5c-0.96,0.13-1.94,0.17-2.91,0.17c-28.34,0.01-113.38,0.02-141.72,0c-6.74,0-11.94-3.45-14.06-9.2
			c-3.34-9.06,3.13-18.71,12.9-18.82c14.57-0.16,29.15-0.04,43.73-0.04C292.63,654.25,292.63,654.25,292.63,654.25z"/>
		<path class="st0" d="M349.24,373.12c14.33,0,28.67-0.06,43,0.03c8.73,0.05,14.86,6.42,14.49,14.8
			c-0.29,6.55-5.44,12.21-11.94,13.08c-0.96,0.13-1.94,0.17-2.91,0.17c-28.42,0.01-56.84,0.02-85.27,0
			c-8.55-0.01-14.78-6.03-14.75-14.09c0.03-7.43,5.7-13.57,13.17-13.88c5.58-0.23,11.17-0.09,16.76-0.1
			C330.94,373.11,340.09,373.12,349.24,373.12z"/>
		<path class="st0" d="M152.69,442.25c19.83,0,39.66-0.02,59.5,0.01c7.48,0.01,13.41,5,14.36,11.9c1.18,8.55-5.09,15.96-13.73,16.2
			c-0.32,0.01-0.65,0-0.97,0c-39.5,0-79.01,0-118.51,0c-7.11,0-12.71-4.07-14.41-10.39c-2.35-8.71,4.01-17.35,13.06-17.68
			c2.34-0.09,4.69-0.04,7.04-0.04C116.91,442.25,134.8,442.25,152.69,442.25z"/>
		<path class="st0" d="M152.62,612.13c-17.08,0-0.14,0.03-17.22-0.02c-6.15-0.02-11.36-3.89-13.26-9.59
			c-1.87-5.61,0-11.79,4.7-15.49c3.02-2.38,6.52-3.03,10.26-3.03c27.6,0.02,21.19,0.01,48.79,0.01c5.83,0,11.66-0.12,17.48,0.04
			c9.81,0.26,16.38,8.86,13.81,17.88c-1.74,6.1-7.16,10.17-13.8,10.18C186.45,612.16,169.53,612.13,152.62,612.13z"/>
		<path class="st0" d="M125.38,512.35c14.41,0,28.83-0.07,43.24,0.03c8.29,0.05,14.35,6.32,14.18,14.38
			c-0.14,6.78-5.32,12.6-12.04,13.5c-0.96,0.13-1.94,0.17-2.91,0.17c-28.34,0.01-56.68,0.02-85.02,0c-6.74,0-11.94-3.45-14.06-9.2
			c-3.34-9.06,3.13-18.71,12.9-18.82c14.57-0.16,29.15-0.04,43.73-0.04C125.38,512.36,125.38,512.35,125.38,512.35z"/>
		<path class="st2" d="M359.57,108.17H128.25c-5.89,0-10.72,4.82-10.72,10.72v186.29c0,5.89,4.82,10.72,10.72,10.72h55.53
			l35.29,35.71c3.85,6.67,13.49,6.67,17.34,0l5.94-35.71h117.22c5.89,0,10.72-4.82,10.72-10.72V118.89
			C370.29,112.99,365.46,108.17,359.57,108.17z"/>
		<path class="st3" d="M179.59,248.72l19.41-20.1c3.85-3.99,10.22-4.04,14.14-0.12l11.33,11.33l41.08-41.08l-10.25-12.15
			c-3.3-3.91-3.08-9.69,0.51-13.34l22.17-22.54c3.94-4.01,10.42-3.94,14.28,0.15l1.08,1.14c15.99,16.97,15.5,43.6-1.11,59.97
			l-51.85,51.09c-16.5,16.25-42.92,16.47-59.69,0.49l-0.8-0.77C175.9,258.98,175.77,252.67,179.59,248.72z"/>
	</g>
</g>
</svg>
