<?xml version="1.0" encoding="utf-8"?>
<!-- Generator: Adobe Illustrator 25.2.3, SVG Export Plug-In . SVG Version: 6.00 Build 0)  -->
<svg version="1.1" id="Слой_1" xmlns="http://www.w3.org/2000/svg" xmlns:xlink="http://www.w3.org/1999/xlink" x="0px" y="0px"
	 viewBox="0 0 836 836" style="enable-background:new 0 0 836 836;" xml:space="preserve">
<style type="text/css">
	.st0{fill:none;stroke:#FFFFFF;stroke-width:25.0044;stroke-miterlimit:10;}
	.st1{fill:none;stroke:#FFFFFF;stroke-width:25.0054;stroke-miterlimit:10;}
	.st2{fill:#FFFFFF;}
	.st3{font-family:'Roboto-Bold';}
	.st4{font-size:148.0947px;}
</style>
<g>
	<path class="st0" d="M442.35,673.88H118.52c-10.83,0-19.6-8.78-19.6-19.6V82.48c0-10.83,8.78-19.6,19.6-19.6h434.79
		c10.83,0,19.6,8.78,19.6,19.6v315.75"/>
	<line class="st1" x1="285.92" y1="338.88" x2="518.92" y2="338.88"/>
	<line class="st1" x1="285.92" y1="393.88" x2="385.92" y2="393.88"/>
	<line class="st1" x1="285.92" y1="530.88" x2="360.92" y2="530.88"/>
	<line class="st1" x1="285.92" y1="585.88" x2="369.68" y2="585.88"/>
	<text transform="matrix(1 0 0 1 160.9165 224.7949)" class="st2 st3 st4">INFO</text>
	<path class="st1" d="M150.92,373.88l19.35,19.99c5.77,5.96,15.37,5.8,20.93-0.36l55.72-61.63"/>
	<path class="st1" d="M150.92,561.53l19.35,19.99c5.77,5.96,15.37,5.8,20.93-0.36l55.72-61.63"/>
	<g>
		<line class="st1" x1="616.99" y1="646.36" x2="638.73" y2="668.11"/>
		<path class="st1" d="M619.3,693.87l42.17-42.17l67.17,70.35c11.26,11.26,11.26,29.52,0,40.78l0,0l-1.85,1.85
			c-11.34,11.34-29.76,11.25-40.99-0.21L619.3,693.87z"/>
		<circle class="st1" cx="511.75" cy="538.09" r="151"/>
	</g>
</g>
</svg>
