<?xml version="1.0" encoding="utf-8"?>
<!-- Generator: Adobe Illustrator 25.2.3, SVG Export Plug-In . SVG Version: 6.00 Build 0)  -->
<svg version="1.1" id="Слой_1" xmlns="http://www.w3.org/2000/svg" xmlns:xlink="http://www.w3.org/1999/xlink" x="0px" y="0px"
	 viewBox="0 0 817.27 420.42" style="enable-background:new 0 0 817.27 420.42;" xml:space="preserve">
<style type="text/css">
	.st0{fill-rule:evenodd;clip-rule:evenodd;}
</style>
<g>
	<path class="st0" d="M513.19,296.56c-3.05,3.5-6.46,6.38-9.87,9.04c-25.8,20.1-62.92,21.96-94.3,20.03
		c-32.63-2.01-60.54-9.54-93.69-20.15c-19.51-6.24-39.4-12.6-57.58-16.42c-8.59-1.8-16.79-3.01-24.41-3.4
		c2.23-1.17,4.43-2.4,6.61-3.73c9.08-5.55,17.21-11.91,24.14-18.89c29.52-29.72,40.86-76.99,28.23-117.62
		c-3.2-10.3-7.99-20.31-14.22-29.77c-18.34-27.83-44.23-45.2-76.95-51.62c-9.77-1.91-18.83-2.23-28.69-2.23
		c-19.44,0.87-38.21,6.77-55.8,17.53c-26.51,16.23-44.16,39.54-52.44,69.27c-4.15,14.9-5.06,29.9-3.44,45.12
		c4.13,37.92,22.88,67.47,55.74,87.82c6.84,4.25,14,7.7,21.34,10.42c-13.63,2.79-28.5,6.9-36.81,9.2c-2.53,0.7-6.82,1.96-8.94,4.28
		c-2.49,2.73-1.08,6.75,2.45,7.55c3.55,0.8,8.71-1.01,11.24-2.06c17.68-7.34,39.58-11.63,58.57-11.63
		c33.35,0,65.07,11.01,96.88,23.84c14.52,5.85,28.25,11.89,42.34,17.28c6.13,2.35,12.48,4.54,19,6.54
		c45.17,13.84,96.54,18.1,141.2,0.24c22.93-9.17,42.82-24.17,54.24-46.72C521.01,294.62,517.33,291.81,513.19,296.56z M190.85,288.8
		c-13.42,2.34-25.32,1.19-36.4-3.49c-10.77-4.56-19.69-12.52-26.53-23.66c-9.27-15.09-14.44-32.6-16.76-56.78
		c-1.81-18.87-1.6-37.34,0.64-54.89c2.97-23.51,8.61-40.13,18.26-53.89c11.72-16.71,27.84-25.16,47.96-25.16
		c1.94,0,3.93,0.08,5.94,0.24c22.16,1.73,38.26,13.22,49.22,35.13c16.64,33.28,17.21,91.44,8.2,126.22
		c-4.37,16.82-10.56,29.19-19.47,38.94C213.17,281,203.01,286.68,190.85,288.8z"/>
	<path class="st0" d="M562.07,265.16v-27.04c-0.05-6.22-0.1-12.44-0.16-18.65c-0.12-13.74-0.25-27.94-0.29-41.92
		c-0.08-20.19-2.56-41.17-20.04-57.82c-14.03-13.36-31.41-16.33-44.98-17.43c-10.37-0.83-21.32,0.28-32.58,3.31
		c-13.25,3.59-24.52,10.41-32.59,19.73c-9.81,11.32-15.25,25.75-16.61,44.04c-0.08,1.17-0.26,2.91,0.13,4.02
		c0.65,1.84,2.42,3.17,4.48,3.17c4.19,0,4.62-3.36,4.81-6.52c0.05-0.81,0.1-1.63,0.15-2.43c0.05-0.66,0.11-1.31,0.18-1.94
		c0.91-7.64,2.55-14.12,5.03-19.79c4.37-9.96,10.8-17.74,19.12-23.14c4.82-3.13,10.02-5.48,15.43-6.98
		c17.18-4.35,32.7-0.51,42.58,10.5c3.59,4,6.38,8.87,8.28,14.47c3.87,11.4,4.78,25.38,4.84,35.27
		c-16.78,1.23-70.95,6.92-96.89,29.72c-11.61,10.18-17.5,25.59-15.48,39.96c-0.13,0.26-0.24,0.52-0.37,0.78
		c-6.31,12.79-16.22,18.64-29.47,17.48c-7.34-0.66-12.5-4.1-15.77-10.51c-3.18-6.26-3.63-12.97-3.66-18.71
		c-0.05-14.01-0.04-28.01-0.03-42.02l-0.02-79.67h48.43h2.46c0.75,0,1.87,0.05,2.63-0.11c0.66-0.14,1.27-0.43,1.8-0.82
		c2.62-1.93,2.57-5.89-0.08-7.76c-0.47-0.33-1-0.58-1.56-0.72c-0.83-0.21-1.84-0.15-2.69-0.15h-4.78h-46.19c-0.04-3.5,0-7,0-10.5
		c0-8.71,0-17.42-0.07-26.11c0-1.54-0.32-3.06-1.15-4.11c-1.25-1.58-3.7-1.73-5.38-0.76c-0.64,0.37-1.33,0.95-2.03,1.79
		c-5.36,6.49-10.68,13.24-16,19.99c-5.24,6.66-10.49,13.3-15.76,19.7h-16.31c-0.56,0-1.02,0.03-1.58,0.19
		c-1.99,0.57-3.46,2.42-3.46,4.59c0,2.17,1.44,4,3.41,4.58c0.74,0.22,1.36,0.2,2.13,0.2h14.13l0.01,98.21l0,17.85
		c0,9.71,2.13,18.57,7.2,26.91c3.69,6.07,8.71,11.08,15.01,14.95c8.55,5.25,18.15,7.83,29.23,7.83c1.6,0,3.23-0.05,4.9-0.16
		c14.82-0.95,26.86-7.26,35.79-18.76c0.89-1.14,1.71-2.27,2.5-3.41c4.29,8.97,12.14,15.66,22.52,18.78
		c6.69,2.02,13.39,2.98,19.98,2.98c29.77,0,56.94-19.77,67.58-51.58c0.71-2.14,1.35-4.32,1.94-6.41c3.7,6.88,7.38,13.76,11.05,20.65
		l11.47,21.59c0.65,1.22,1.31,2.44,1.96,3.67c1,1.9,2,3.8,2.98,5.72l0.35,0.69c0.57,1.15,1.28,2.58,2.19,3.62
		c0.38,0.44,0.78,0.78,1.19,1.03c1.39,0.84,3.05,0.98,4.59,0.4c1.44-0.55,2.57-1.69,3.09-3.14h0c0.43-1.21,0.45-4.37,0.42-7.77
		C562.07,266.07,562.07,265.55,562.07,265.16z M506.3,235.19c-6.91,11.19-15.41,17.54-26,19.4c-9.16,1.6-15.97,0.3-21.51-4.11
		c-6.72-5.36-8-12.74-7.88-17.98c0.32-14.5,9.41-27.87,24.31-35.76c11.29-5.97,30.75-10.58,42.29-11.43
		c0.89-0.07,1.47-0.08,1.85-0.08c0.12,0,0.22,0,0.29,0C518.89,199.63,514.96,221.15,506.3,235.19L506.3,235.19z"/>
	<path class="st0" d="M756.31,175.46c-3.03-26.92-15.61-53.3-41.27-65.12c-15.82-7.29-38.48-8.57-55.08-2.53
		c-6.08,2.21-11.69,5.21-16.45,8.84c-9.3,7.11-16.06,15.89-21.28,27.31c-0.02-11.34-0.04-23.94,0.07-34.39
		c0.02-1.5-0.13-3.21-1.33-4.41c-1.22-1.22-3.04-1.37-4.28-1.32c-7.19,0.11-14.36,0.1-21.54,0.07l-9.49-0.01
		c-4.67,0-5.62,0.94-5.62,5.58v216.89c0,2.63,0,4.22,1.17,5.38c1.11,1.1,2.53,1.16,5.02,1.16c0.17,0,0.32,0,0.48,0h29.39
		c5.24,0,6.16-0.93,6.16-6.2l0-90.37c1.66,3.98,3.49,8.22,5.87,12.14c6.38,10.55,15.16,18.67,25.58,23.88
		c21.19,10.61,52.46,6.93,71.71-6.89c10.51-7.55,18.64-18.46,24.24-32.64C756.97,214.31,758.53,194.99,756.31,175.46z
		 M709.12,222.16c-3.33,13.04-8.53,23.1-15.93,30.77c-8.12,8.43-17.63,11.77-28.85,10.32c-9.35-1.24-17.38-6.02-24.55-14.64
		c-1.73-2.07-3.33-4.28-4.8-6.6c-4.48-7.14-7.74-15.36-9.71-24.59c-1.65-7.76-2.98-17.12-3.06-27.23
		c-0.14-17,3.55-35.42,12.64-50.01c5.26-8.44,11.79-14.44,19.83-18.2c12.52-5.87,28.48-3.56,37.87,5.9
		c8.56,8.65,14.23,19.83,17.37,34.18C714.36,182.37,714.1,202.59,709.12,222.16z"/>
</g>
</svg>
