<?xml version="1.0" encoding="utf-8"?>
<!-- Generator: Adobe Illustrator 25.2.3, SVG Export Plug-In . SVG Version: 6.00 Build 0)  -->
<svg version="1.1" id="Слой_1" xmlns="http://www.w3.org/2000/svg" xmlns:xlink="http://www.w3.org/1999/xlink" x="0px" y="0px"
	 viewBox="0 0 836 836" style="enable-background:new 0 0 836 836;" xml:space="preserve">
<style type="text/css">
	.st0{fill:none;stroke:#FFFFFF;stroke-width:22.7543;stroke-linecap:round;stroke-linejoin:round;stroke-miterlimit:10;}
	.st1{fill:none;stroke:#FFFFFF;stroke-width:22.7543;stroke-miterlimit:10;}
	.st2{fill:#FFFFFF;}
	.st3{fill:none;stroke:#FFFFFF;stroke-width:23.8669;stroke-miterlimit:10;}
</style>
<g>
	<g>
		<path class="st0" d="M76.83,508.13c11.54-7.21,79.31-53.35,79.31-53.35l151.41,237.93l-72.1,51.91"/>
		<path class="st1" d="M180.09,492.41c8.65-1.44,64.41-48.03,64.41-48.03s77.68-88.71,177.37-15.86c21.37,0,68.7,0.21,86.47,0.47
			c27.46,0.4,49.49,22.78,49.49,50.23v0c0,27.75-22.49,50.24-50.24,50.24h-69.87"/>
		<path class="st1" d="M284.87,657.07l36.05-20.9l218.14-8.65l213.91-139.88c0,0-2.88-50.47-60.56-41.82
			c-57.68,8.65-88.46,50.47-136.04,49.03"/>
		<path class="st2" d="M135.55,556.54c-10.09-16.12-0.12-0.11-10.16-16.27c-3.62-5.82-3.04-13.02,1.21-18.18
			c4.19-5.08,11.13-6.96,17.4-4.72c4.03,1.44,6.71,4.36,8.92,7.9c16.29,26.06-10.94-17.45,5.37,8.6c3.44,5.5,7,10.94,10.3,16.52
			c5.56,9.41,1.32,20.7-8.72,23.6c-6.79,1.96-13.83-0.75-17.77-7.01C132.07,551.03,145.55,572.51,135.55,556.54z"/>
	</g>
	<path class="st1" d="M715.5,110.76L588.51,34.78c-1.78-0.53-3.67-0.53-5.45,0l-126.99,75.98c-4.01,1.2-6.76,4.9-6.76,9.08v139.69
		c0,18.17,7.36,36.77,21.86,55.28c11.08,14.14,26.41,28.34,45.56,42.2c32.17,23.29,63.85,37.57,65.18,38.17
		c1.23,0.55,2.55,0.83,3.88,0.83c1.32,0,2.64-0.28,3.88-0.83c1.33-0.6,33.01-14.88,65.18-38.17c19.15-13.86,34.48-28.06,45.56-42.2
		c14.51-18.51,21.86-37.11,21.86-55.28V119.84C722.26,115.65,719.51,111.96,715.5,110.76z"/>
	<path class="st3" d="M513.31,230.81l34.24,35.38c10.2,10.54,27.2,10.26,37.04-0.63l98.62-109.08"/>
</g>
</svg>
